<?xml version="1.0" encoding="utf-8"?>
<!-- Generator: Adobe Illustrator 19.2.1, SVG Export Plug-In . SVG Version: 6.00 Build 0)  -->
<svg version="1.1" id="Layer_1" xmlns="http://www.w3.org/2000/svg" xmlns:xlink="http://www.w3.org/1999/xlink" x="0px" y="0px"
	 viewBox="0 0 172.3 176.3" style="enable-background:new 0 0 172.3 176.3;" xml:space="preserve">
<style type="text/css">
	.st0{fill-rule:evenodd;clip-rule:evenodd;fill:#E31B23;}
	.st1{fill:#FFFFFF;}
</style>
<g>
	<path class="st0" d="M86,167.9c44.9,0,81.5-36.6,81.5-81.5c0-44.9-36.6-81.5-81.5-81.5C41.1,4.9,4.5,41.5,4.5,86.4
		C4.5,131.3,41.1,167.9,86,167.9"/>
	<g>
		<path class="st1" d="M60.8,71.4c1.8-1.9,4.1-3.5,6.7-4.6c2.7-1.2,5.8-1.7,9.5-1.7h9.5c2.1,0,4-0.4,5.7-1.1c1.6-0.8,3-1.7,4.1-2.9
			c1.1-1.2,2-2.6,2.5-4.2c0.6-1.6,0.9-3.2,0.9-4.9c0-1.7-0.3-3.3-0.9-4.9c-0.6-1.6-1.4-3-2.5-4.2c-1.1-1.2-2.5-2.2-4.1-3
			c-1.6-0.8-3.5-1.1-5.7-1.1H79c-8.2,0-15.3,1.3-21.4,3.8c-6.1,2.5-11.1,6-15.2,10.3c-4.1,4.4-7.1,9.4-9.1,15.2
			c-2,5.8-3,11.9-3,18.3c0,5.9,1,11.6,2.9,17.1c2,5.5,4.9,10.5,8.7,14.8c3.9,4.4,8.7,7.9,14.6,10.5c5.9,2.6,12.7,3.9,20.4,3.9h9.5
			c3.7,0,6.9-1.1,9.4-3.3c2.5-2.2,3.8-5.4,3.8-9.7V91.1c0-4-1.3-7.1-3.8-9.3c-2.5-2.2-5.5-3.3-9-3.3c-3.4,0-6.3,1.1-8.9,3.3
			c-2.5,2.2-3.8,5.3-3.8,9.3V104c0,1.4-1.1,2.5-2.5,2.4c-2.2-0.3-4.2-0.9-6-1.8c-2.4-1.2-4.3-2.7-5.9-4.6c-1.6-1.9-2.7-4.1-3.4-6.6
			c-0.7-2.5-1.1-5-1.1-7.7c0-2.6,0.4-5.1,1.3-7.6C57.6,75.6,59,73.4,60.8,71.4z"/>
		<path class="st1" d="M109.6,98.3c2.6,2.3,5.6,3.4,9.1,3.4c1.6,0,3.2-0.3,4.8-0.9c1.6-0.6,3-1.4,4.2-2.5c1.2-1.1,2.2-2.5,2.9-4.1
			c0.7-1.6,1.1-3.4,1.1-5.5V51.6c0-4.3-1.3-7.5-3.8-9.7c-2.5-2.2-5.5-3.3-9.1-3.3c-3.5,0-6.5,1.1-9.1,3.3c-2.6,2.2-3.9,5.4-3.9,9.7
			v37.2C105.7,92.9,107,96,109.6,98.3z"/>
		<path class="st1" d="M131,115.2c-0.7-1.6-1.6-3-2.8-4.2c-1.2-1.2-2.6-2.1-4.2-2.9c-1.6-0.7-3.2-1.1-5-1.1c-1.8,0-3.5,0.4-5,1.1
			c-1.6,0.7-2.9,1.7-4.2,2.9c-1.2,1.2-2.1,2.6-2.8,4.2c-0.7,1.6-1,3.2-1,4.9c0,1.8,0.3,3.4,1,5c0.7,1.6,1.6,2.9,2.8,4.1
			c1.2,1.2,2.6,2.1,4.2,2.9c1.6,0.7,3.2,1.1,5,1.1c1.8,0,3.5-0.4,5-1.1c1.6-0.7,3-1.7,4.2-2.9c1.2-1.2,2.1-2.6,2.8-4.1
			c0.7-1.6,1-3.2,1-5C132,118.5,131.6,116.8,131,115.2z"/>
	</g>
</g>
</svg>
